<svg xmlns="http://www.w3.org/2000/svg" viewBox="0 0 800 474" width="800" height="474">
	<style>
		tspan { white-space:pre }
		.shp0 { fill: #040404 } 
		.shp1 { fill: #f8f8f8 } 
		.shp2 { fill: #825e6c } 
		.txt3 { font-size: 24px;fill: #000000;font-family: "DejaVu Sans";font-weight: 400 } 
	</style>
	<path id="Layer" class="shp0" d="M0 0L0 474L800 474L800 0L0 0Z" />
	<path id="Layer" class="shp1" d="M5.93 5.92L5.93 468.07L794.07 468.07L794.07 5.92L5.93 5.92Z" />
	<path id="Layer" class="shp0" d="M17.78 17.77L17.78 385.13L385.19 385.13L385.19 17.77L17.78 17.77Z" />
	<text id="Text layer 15" style="transform: matrix(1,0,0,1,239,-141)" >
	</text>
	<path id="Layer" class="shp0" d="M414.81 20.74L414.81 385.13L779.26 385.13L782.22 20.74L414.81 20.74Z" />
	<path id="Layer" class="shp1" d="M29.63 29.63L29.63 373.27L373.33 373.27L373.33 29.63L29.63 29.63ZM423.7 29.63L423.7 284.4L423.7 346.61C423.72 353.78 422.03 365.14 428.45 370.23C438.52 378.2 464.81 373.27 477.04 373.27L607.41 373.27C581.31 355.72 549.67 343.66 521.48 329.57C511.19 324.42 492.18 318.91 487.26 307.47C484.33 300.67 488.34 294.23 488.25 287.36C488.07 273.06 479.94 266.49 491.85 254.78C489.01 236.24 496.71 226.57 515.56 225.15L518.52 213.3C500.52 208.19 488.22 183.06 512.65 176.07C547.38 166.14 587.29 182.15 622.22 171.82C613.48 154.72 594.33 148.73 580.92 135.73C575.28 130.26 567.8 121.76 573.81 113.87C584.03 100.47 605.45 113.85 616.3 119.23C646.82 134.38 677.19 149.64 708.15 163.85C719.3 168.97 736.89 174.67 741.92 186.95C749.37 205.17 743.7 235.25 743.7 254.78C743.7 263.07 745.13 273.27 741.92 281.13C737.48 291.96 724.62 293.79 718.26 302.99C704.43 323.02 693.82 350.76 684.44 373.27L770.37 373.27L770.37 29.63L423.7 29.63Z" />
	<path id="Layer" fill-rule="evenodd" class="shp2" d="M773.33 65.17C773.33 91.24 780.47 130 770.37 154.05L770.37 29.63C774.97 40.58 773.33 53.38 773.33 65.17ZM469.39 127.39C471.56 118.34 478.87 110.33 478.45 100.72C477.88 87.75 459.01 67.66 472.84 55.43C480.69 48.5 485.72 59.29 487.77 65.31C492.73 79.93 502.6 93.89 497.38 109.61C494.82 117.33 490.11 124.28 488.98 132.47C487.47 143.46 493.22 155.08 494.81 165.9C473.75 164.42 464.49 147.76 469.39 127.39ZM528.61 130.35C530.7 119.05 538.89 109.69 537.97 97.76C537.05 85.73 521.64 68.68 529.91 57.29C536.33 48.46 544.61 54.94 547.76 62.39C553.94 76.98 562.41 93.53 558.12 109.61C555.73 118.59 550.56 126.71 550.65 136.28C550.75 146.2 555.56 156.07 557.04 165.9C538.2 165.27 524.95 150.13 528.61 130.35ZM500.27 127.4C502.98 118.66 511.24 109.96 510.33 100.46C509.16 88.07 493.23 70.8 503.73 58.25C508.27 52.81 512.97 58.11 515 62.55C520.26 74.02 531.73 91.4 528.68 104.27C526.49 113.53 519.27 120.74 517.92 130.36C516.32 141.79 523.7 152.57 527.41 162.94C505 168.85 494.03 147.51 500.27 127.4ZM201.48 56.29L204.44 59.25L201.48 56.29Z" />
	<path id="Layer" class="shp0" d="M192.59 159.97C168.85 161.13 144.59 159.69 121.48 165.9C110.81 153.7 92.33 163.11 89.57 177.8C83.3 211.1 88.89 250.5 88.89 284.4C88.89 296.75 85.67 314.74 93.64 325.21C107.87 343.9 142.61 337.72 162.96 337.72C183.85 337.72 217.1 344.06 236.49 335.94C246.38 331.8 252.74 319.44 258.61 311.06C271.15 293.16 284 275.51 296.71 257.74C306.27 244.38 331.54 218.73 330.23 201.5C329.07 186.05 308.8 180.52 296.3 184.23C276.05 190.25 266.86 213.59 253.44 227.88C248.68 232.95 240.32 239.66 235.86 230.46C232.32 223.16 234.07 212.28 234.07 204.41C234.07 182.38 228.44 151.23 235.85 130.35C241.33 114.9 253.89 107.04 250.86 88.88C244.29 49.45 189.1 46.68 175.27 82.95C167.68 102.84 181.9 113.94 189.59 130.35C193.84 139.4 192.59 150.25 192.59 159.97Z" />
	<path id="Layer" class="shp2" d="M222.22 56.29L225.19 59.25L222.22 56.29Z" />
	<path id="Layer" class="shp1" d="M189.63 112.58C193.9 102.5 191.84 89.72 200.04 81.27C221.1 59.58 233.92 93 234.07 109.61C265.45 75.99 187.92 46.36 184.64 94.79C184.18 101.57 186.81 106.68 189.63 112.58Z" />
	<path id="Layer" class="shp2" d="M228.15 71.1L231.11 74.06L228.15 71.1ZM237.04 79.99L240 82.95L237.04 79.99ZM207.41 82.95C211.87 84.97 214.27 85.4 219.26 85.91C214.8 83.89 212.4 83.47 207.41 82.95ZM248.89 82.95L251.85 85.91L248.89 82.95ZM171.85 85.91L174.81 88.88L171.85 85.91Z" />
	<path id="Layer" class="shp1" d="M198.52 177.75C177.34 169.27 152.11 176.75 130.37 177.07C120.32 177.22 110.9 169.02 102.53 178.71C95.12 187.28 97.78 202.86 97.78 213.3L97.78 287.36C97.78 301.24 96.96 314.53 109.8 323.23C119.45 329.76 131.13 328.83 142.22 328.84L201.48 328.84C211.98 328.84 224.5 330.57 233.53 324.09C241.99 318.01 247.18 307.44 253.27 299.21C264.94 283.43 276.94 267.87 288.23 251.81C297.18 239.1 311.45 225.08 316.6 210.35C320.29 199.8 312.96 192.36 302.22 193.41C288.3 194.78 279.48 208.85 272.18 219.22C261.14 234.93 251.86 246.77 234.07 254.78C217.85 213.29 225.19 162.81 225.19 118.5C225.18 110 225.32 74.27 206.64 88.97C199.59 94.53 201.49 107.71 201.48 115.54C201.45 136.2 203.33 157.54 198.52 177.75Z" />
	<text id="PUSH BUTTON                RECEI" style="transform: matrix(1,0,0,1,20.88,425.484)" >
		<tspan x="0" y="0" class="txt3">PUSH BUTTON                RECEIVE SOMEWHAT HELPFUL ADVICE</tspan>
	</text>
	<path id="Layer" class="shp1" d="M577.78 118.5C585.33 133.38 602.84 141.26 616.24 150.45C622.49 154.74 630.97 160.02 628.88 168.92C626.57 178.79 616.38 182.72 607.41 183.5C584.05 185.54 559.74 183.66 536.3 183.67C528.66 183.68 501.23 182.04 510.33 197.6C515.29 206.08 528.04 204.4 536.3 204.41C555.12 204.45 581.51 198.96 595.56 213.3L557.04 213.3C581.13 233.26 617.13 245.75 645.93 257.74C643.96 238.51 629.61 223.12 627.63 204.41C626.77 196.23 631.15 185.08 640.31 183.67C650.07 182.16 659.05 191.74 664.34 198.62C678.37 216.85 689.51 238.2 701.65 257.74C706.57 265.65 715.68 285.51 727.99 279.65C735.04 276.29 734.68 267.25 734.8 260.69C735.14 242.86 741.56 206.11 731.77 190.76C725.05 180.22 707.03 174.96 696.3 169.59L619.26 131.08C605.72 124.31 593.17 115.53 577.78 118.5Z" />
	<path id="Layer" class="shp2" d="M610.37 115.54L613.33 118.5L610.37 115.54ZM180.74 118.5L183.7 121.46L180.74 118.5ZM616.3 118.5L619.26 121.46L616.3 118.5ZM183.7 121.46L186.67 124.42L183.7 121.46ZM622.22 121.46L625.19 124.42L622.22 121.46ZM580.74 124.42L583.7 127.39L580.74 124.42ZM628.15 124.42L631.11 127.39L628.15 124.42ZM189.63 127.39L192.59 130.35L189.63 127.39ZM634.07 127.39L637.04 130.35L634.07 127.39ZM586.67 130.35L589.63 133.31L586.67 130.35ZM640 130.35L642.96 133.31L640 130.35ZM592.59 133.31L595.56 136.28L592.59 133.31ZM645.93 133.31L648.89 136.28L645.93 133.31ZM595.56 136.28L598.52 139.24L595.56 136.28ZM651.85 136.28L654.81 139.24L651.85 136.28ZM583.7 139.24L586.67 142.2L583.7 139.24ZM601.48 139.24L604.44 142.2L601.48 139.24ZM657.78 139.24L660.74 142.2L657.78 139.24ZM642.96 142.2L645.93 145.16L642.96 142.2ZM663.7 142.2L666.67 145.16L663.7 142.2ZM592.59 145.16L595.56 148.13L592.59 145.16ZM648.89 145.16L651.85 148.13L648.89 145.16ZM669.63 145.16L672.59 148.13L669.63 145.16ZM601.48 151.09L604.44 154.05L601.48 151.09ZM607.41 154.05L610.37 157.01L607.41 154.05ZM666.67 154.05L669.63 157.01L666.67 154.05ZM610.37 157.01L613.33 159.97L610.37 157.01ZM628.15 157.01L631.11 159.97L628.15 157.01ZM672.59 157.01L675.56 159.97L672.59 157.01ZM97.78 159.97L100.74 162.94L97.78 159.97ZM138.27 160.96C136.95 162.28 140.08 162.11 140.25 161.95C141.56 160.63 138.44 160.8 138.27 160.96ZM616.3 159.97L619.26 162.94L616.3 159.97ZM702.22 159.97L705.19 162.94L702.22 159.97ZM121.48 162.94L124.44 165.9L121.48 162.94ZM619.26 162.94L622.22 165.9L619.26 162.94ZM708.15 162.94L711.11 165.9L708.15 162.94ZM714.07 165.9L717.04 168.86L714.07 165.9ZM88.89 168.86L91.85 171.82L88.89 168.86ZM720 168.86L722.96 171.82L720 168.86ZM103.7 171.82L106.67 174.79L103.7 171.82ZM725.93 171.82L728.89 174.79L725.93 171.82ZM157.04 174.79L160 177.75L157.04 174.79ZM731.85 174.79L734.81 177.75L731.85 174.79ZM737.78 177.75L740.74 180.71L737.78 177.75ZM301.24 181.7C299.92 183.02 303.05 182.85 303.21 182.69C304.53 181.37 301.4 181.54 301.24 181.7ZM310.12 181.7C308.81 183.02 311.93 182.85 312.1 182.69C313.42 181.37 310.29 181.54 310.12 181.7ZM634.07 180.71C638.54 182.74 640.93 183.16 645.93 183.67C641.46 181.65 639.07 181.23 634.07 180.71ZM740.74 180.71L743.7 183.67L740.74 180.71ZM287.41 183.67L290.37 186.64L287.41 183.67ZM317.04 183.67L320 186.64L317.04 183.67ZM631.11 183.67L634.07 186.64L631.11 183.67ZM725.93 183.67L728.89 186.64L725.93 183.67ZM284.44 186.64L287.41 189.6L284.44 186.64ZM281.48 189.6L284.44 192.56L281.48 189.6ZM641.98 190.59C640.66 191.9 643.79 191.74 643.95 191.58C645.27 190.26 642.14 190.42 641.98 190.59ZM278.52 192.56L281.48 195.53L278.52 192.56Z" />
	<path id="Layer" class="shp1" d="M640 192.56C638.51 209.98 646.52 223.98 652.4 239.96C654.77 246.42 658.68 255.55 652.91 261.42C645.56 268.89 632.99 263.24 625.19 259.77C605.08 250.85 585.6 240.18 565.93 230.34C557.79 226.28 548.57 219.89 539.43 218.59C531.1 217.4 526.08 224.58 532.22 231.19C539.57 239.11 553.44 243.36 562.96 248.12C575.18 254.23 586.2 259.5 595.56 269.59C563.49 267.98 535.51 240.69 503.7 234.04C501.55 248.51 512.7 253.4 524.44 259.79C542.5 269.6 573.22 278.11 583.7 296.25C554.72 291.73 520.69 254.3 491.85 266.63C507.11 297.65 555.45 291.57 571.85 319.95C546.63 317.37 519.59 289.97 494.81 299.21L494.81 305.14C529.19 325.19 566.22 340.8 601.48 359.24C620.69 369.28 646.57 381.28 669 371.49C679.6 366.86 684.56 350.31 689.45 340.69C695.87 328.08 709.16 307.63 708.71 293.29C708.11 274.11 683.31 247.06 673.12 231.07C664.13 216.98 656.85 197.82 640 192.56Z" />
</svg>